{
  "asset": {
    "version": "2.0",
    "generator": "Laboratory grid adapter"
  },
  "scene": 0,
  "scenes": [
    {
      "nodes": [
        0
      ]
    }
  ],
  "nodes": [
    {
      "name": "Lab_Details_Pipes_Long",
      "mesh": 0
    }
  ],
  "meshes": [
    {
      "primitives": [
        {
          "attributes": {
            "POSITION": 0,
            "NORMAL": 1,
            "TANGENT": 2
          },
          "indices": 3,
          "material": 1,
          "mode": 4
        },
        {
          "attributes": {
            "POSITION": 4,
            "NORMAL": 5,
            "TANGENT": 6
          },
          "indices": 7,
          "material": 3,
          "mode": 4
        },
        {
          "attributes": {
            "POSITION": 8,
            "NORMAL": 9,
            "TANGENT": 10
          },
          "indices": 11,
          "material": 4,
          "mode": 4
        },
        {
          "attributes": {
            "POSITION": 12,
            "NORMAL": 13,
            "TANGENT": 14
          },
          "indices": 15,
          "material": 5,
          "mode": 4
        }
      ]
    }
  ],
  "materials": [
    {
      "name": "Main",
      "pbrMetallicRoughness": {
        "baseColorFactor": [
          0.32157066464424133,
          0.32157066464424133,
          0.32157066464424133,
          1
        ],
        "metallicFactor": 0
      }
    },
    {
      "name": "Accent",
      "pbrMetallicRoughness": {
        "baseColorFactor": [
          0.44767409563064575,
          0.23813796043395996,
          0.05343186482787132,
          1
        ],
        "metallicFactor": 0
      }
    },
    {
      "name": "Light",
      "pbrMetallicRoughness": {
        "baseColorFactor": [
          0.800000011920929,
          0.800000011920929,
          0.800000011920929,
          1
        ]
      }
    },
    {
      "name": "DarkGrey",
      "pbrMetallicRoughness": {
        "baseColorFactor": [
          0.19163785874843597,
          0.19163785874843597,
          0.19163785874843597,
          1
        ],
        "metallicFactor": 0
      }
    },
    {
      "name": "DarkAccent",
      "pbrMetallicRoughness": {
        "baseColorFactor": [
          0.18126316368579865,
          0.09870254993438721,
          0.024117888882756233,
          1
        ],
        "metallicFactor": 0
      }
    },
    {
      "name": "Black",
      "pbrMetallicRoughness": {
        "baseColorFactor": [
          0.03362038731575012,
          0.03362038731575012,
          0.03362038731575012,
          1
        ],
        "metallicFactor": 0
      }
    }
  ],
  "buffers": [
    {
      "uri": "C:/Users/2230190/Desktop/New JAMMOMAN/Data/Model/laboratory/Generated/Lab_Details_Pipes_Long.bin",
      "byteLength": 37736
    }
  ],
  "bufferViews": [
    {
      "buffer": 0,
      "byteOffset": 0,
      "byteLength": 1536,
      "target": 34962
    },
    {
      "buffer": 0,
      "byteOffset": 1536,
      "byteLength": 1536,
      "target": 34962
    },
    {
      "buffer": 0,
      "byteOffset": 3072,
      "byteLength": 2048,
      "target": 34962
    },
    {
      "buffer": 0,
      "byteOffset": 5120,
      "byteLength": 768,
      "target": 34963
    },
    {
      "buffer": 0,
      "byteOffset": 5888,
      "byteLength": 6792,
      "target": 34962
    },
    {
      "buffer": 0,
      "byteOffset": 12680,
      "byteLength": 6792,
      "target": 34962
    },
    {
      "buffer": 0,
      "byteOffset": 19472,
      "byteLength": 9056,
      "target": 34962
    },
    {
      "buffer": 0,
      "byteOffset": 28528,
      "byteLength": 4224,
      "target": 34963
    },
    {
      "buffer": 0,
      "byteOffset": 32752,
      "byteLength": 1056,
      "target": 34962
    },
    {
      "buffer": 0,
      "byteOffset": 33808,
      "byteLength": 1056,
      "target": 34962
    },
    {
      "buffer": 0,
      "byteOffset": 34864,
      "byteLength": 1408,
      "target": 34962
    },
    {
      "buffer": 0,
      "byteOffset": 36272,
      "byteLength": 864,
      "target": 34963
    },
    {
      "buffer": 0,
      "byteOffset": 37136,
      "byteLength": 144,
      "target": 34962
    },
    {
      "buffer": 0,
      "byteOffset": 37280,
      "byteLength": 144,
      "target": 34962
    },
    {
      "buffer": 0,
      "byteOffset": 37424,
      "byteLength": 192,
      "target": 34962
    },
    {
      "buffer": 0,
      "byteOffset": 37616,
      "byteLength": 120,
      "target": 34963
    }
  ],
  "accessors": [
    {
      "bufferView": 0,
      "componentType": 5126,
      "count": 128,
      "type": "VEC3",
      "min": [
        -0.26880693334400724,
        -0.8955358129329055,
        -0.03859542066306077
      ],
      "max": [
        0.26338433395388416,
        0.9216828753321212,
        0.019995267397207354
      ]
    },
    {
      "bufferView": 1,
      "componentType": 5126,
      "count": 128,
      "type": "VEC3",
      "min": [
        -0.9238551889037304,
        -0.0000012924198876673442,
        -0.9238580019442496
      ],
      "max": [
        0.923854227233919,
        0.0000038056001036858744,
        -0.3827421977273604
      ]
    },
    {
      "bufferView": 2,
      "componentType": 5126,
      "count": 128,
      "type": "VEC4"
    },
    {
      "bufferView": 3,
      "componentType": 5125,
      "count": 192,
      "type": "SCALAR"
    },
    {
      "bufferView": 4,
      "componentType": 5126,
      "count": 566,
      "type": "VEC3",
      "min": [
        -0.28900536376930375,
        -0.95952098113053,
        -0.0587933849175707
      ],
      "max": [
        0.28358291483976306,
        0.966507793204878,
        0.019995267397207354
      ]
    },
    {
      "bufferView": 5,
      "componentType": 5126,
      "count": 566,
      "type": "VEC3",
      "min": [
        -0.9238557608937037,
        -0.9999999999999858,
        -0.9238584213221023
      ],
      "max": [
        0.9238560259311369,
        0.9999999999999858,
        0.000028387176083045562
      ]
    },
    {
      "bufferView": 6,
      "componentType": 5126,
      "count": 566,
      "type": "VEC4"
    },
    {
      "bufferView": 7,
      "componentType": 5125,
      "count": 1056,
      "type": "SCALAR"
    },
    {
      "bufferView": 8,
      "componentType": 5126,
      "count": 88,
      "type": "VEC3",
      "min": [
        -0.3245816180200034,
        -0.9999999999999999,
        -0.057012188834655315
      ],
      "max": [
        0.3245816180200034,
        0.9999999999999999,
        0.0587933849175707
      ]
    },
    {
      "bufferView": 9,
      "componentType": 5126,
      "count": 88,
      "type": "VEC3",
      "min": [
        -0.9837182532068418,
        -0.9773921829698197,
        -0.9999999999999978
      ],
      "max": [
        0.9837180788295069,
        0.9773907240327602,
        1.647757442519757e-7
      ]
    },
    {
      "bufferView": 10,
      "componentType": 5126,
      "count": 88,
      "type": "VEC4"
    },
    {
      "bufferView": 11,
      "componentType": 5125,
      "count": 216,
      "type": "SCALAR"
    },
    {
      "bufferView": 12,
      "componentType": 5126,
      "count": 12,
      "type": "VEC3",
      "min": [
        -0.28191498405343646,
        -0.9392686842853041,
        0.010910952423882752
      ],
      "max": [
        0.28191490882314524,
        0.9392687004299086,
        0.010911363159474932
      ]
    },
    {
      "bufferView": 13,
      "componentType": 5126,
      "count": 12,
      "type": "VEC3",
      "min": [
        -1.336078554459151e-7,
        1.8002764244628821e-7,
        -0.9999999999999748
      ],
      "max": [
        -1.336078554459151e-7,
        1.8002764244628821e-7,
        -0.9999999999999748
      ]
    },
    {
      "bufferView": 14,
      "componentType": 5126,
      "count": 12,
      "type": "VEC4"
    },
    {
      "bufferView": 15,
      "componentType": 5125,
      "count": 30,
      "type": "SCALAR"
    }
  ]
}
