{
  "asset": {
    "version": "2.0",
    "generator": "Laboratory grid adapter"
  },
  "scene": 0,
  "scenes": [
    {
      "nodes": [
        0
      ]
    }
  ],
  "nodes": [
    {
      "name": "Lab_Props_Crate",
      "mesh": 0
    }
  ],
  "meshes": [
    {
      "primitives": [
        {
          "attributes": {
            "POSITION": 0,
            "NORMAL": 1,
            "TANGENT": 2
          },
          "indices": 3,
          "material": 0,
          "mode": 4
        },
        {
          "attributes": {
            "POSITION": 4,
            "NORMAL": 5,
            "TANGENT": 6
          },
          "indices": 7,
          "material": 1,
          "mode": 4
        },
        {
          "attributes": {
            "POSITION": 8,
            "NORMAL": 9,
            "TANGENT": 10
          },
          "indices": 11,
          "material": 2,
          "mode": 4
        },
        {
          "attributes": {
            "POSITION": 12,
            "NORMAL": 13,
            "TANGENT": 14
          },
          "indices": 15,
          "material": 3,
          "mode": 4
        },
        {
          "attributes": {
            "POSITION": 16,
            "NORMAL": 17,
            "TANGENT": 18
          },
          "indices": 19,
          "material": 4,
          "mode": 4
        }
      ]
    }
  ],
  "materials": [
    {
      "name": "Main",
      "pbrMetallicRoughness": {
        "baseColorFactor": [
          0.32157066464424133,
          0.32157066464424133,
          0.32157066464424133,
          1
        ],
        "metallicFactor": 0
      }
    },
    {
      "name": "Accent",
      "pbrMetallicRoughness": {
        "baseColorFactor": [
          0.44767409563064575,
          0.23813796043395996,
          0.05343186482787132,
          1
        ],
        "metallicFactor": 0
      }
    },
    {
      "name": "DarkGrey",
      "pbrMetallicRoughness": {
        "baseColorFactor": [
          0.19163785874843597,
          0.19163785874843597,
          0.19163785874843597,
          1
        ],
        "metallicFactor": 0
      }
    },
    {
      "name": "DarkAccent",
      "pbrMetallicRoughness": {
        "baseColorFactor": [
          0.18126316368579865,
          0.09870254993438721,
          0.024117888882756233,
          1
        ],
        "metallicFactor": 0
      }
    },
    {
      "name": "Black",
      "pbrMetallicRoughness": {
        "baseColorFactor": [
          0.03362038731575012,
          0.03362038731575012,
          0.03362038731575012,
          1
        ],
        "metallicFactor": 0
      }
    }
  ],
  "buffers": [
    {
      "uri": "Lab_Props_Crate.bin",
      "byteLength": 234496
    }
  ],
  "bufferViews": [
    {
      "buffer": 0,
      "byteOffset": 0,
      "byteLength": 22272,
      "target": 34962
    },
    {
      "buffer": 0,
      "byteOffset": 22272,
      "byteLength": 22272,
      "target": 34962
    },
    {
      "buffer": 0,
      "byteOffset": 44544,
      "byteLength": 29696,
      "target": 34962
    },
    {
      "buffer": 0,
      "byteOffset": 74240,
      "byteLength": 12528,
      "target": 34963
    },
    {
      "buffer": 0,
      "byteOffset": 86768,
      "byteLength": 8544,
      "target": 34962
    },
    {
      "buffer": 0,
      "byteOffset": 95312,
      "byteLength": 8544,
      "target": 34962
    },
    {
      "buffer": 0,
      "byteOffset": 103856,
      "byteLength": 11392,
      "target": 34962
    },
    {
      "buffer": 0,
      "byteOffset": 115248,
      "byteLength": 4512,
      "target": 34963
    },
    {
      "buffer": 0,
      "byteOffset": 119760,
      "byteLength": 1056,
      "target": 34962
    },
    {
      "buffer": 0,
      "byteOffset": 120816,
      "byteLength": 1056,
      "target": 34962
    },
    {
      "buffer": 0,
      "byteOffset": 121872,
      "byteLength": 1408,
      "target": 34962
    },
    {
      "buffer": 0,
      "byteOffset": 123280,
      "byteLength": 576,
      "target": 34963
    },
    {
      "buffer": 0,
      "byteOffset": 123856,
      "byteLength": 28032,
      "target": 34962
    },
    {
      "buffer": 0,
      "byteOffset": 151888,
      "byteLength": 28032,
      "target": 34962
    },
    {
      "buffer": 0,
      "byteOffset": 179920,
      "byteLength": 37376,
      "target": 34962
    },
    {
      "buffer": 0,
      "byteOffset": 217296,
      "byteLength": 14016,
      "target": 34963
    },
    {
      "buffer": 0,
      "byteOffset": 231312,
      "byteLength": 768,
      "target": 34962
    },
    {
      "buffer": 0,
      "byteOffset": 232080,
      "byteLength": 768,
      "target": 34962
    },
    {
      "buffer": 0,
      "byteOffset": 232848,
      "byteLength": 1024,
      "target": 34962
    },
    {
      "buffer": 0,
      "byteOffset": 233872,
      "byteLength": 624,
      "target": 34963
    }
  ],
  "accessors": [
    {
      "bufferView": 0,
      "componentType": 5126,
      "count": 1856,
      "type": "VEC3",
      "min": [
        -0.3710749841454707,
        0.003924956332419176,
        -0.37107503565275024
      ],
      "max": [
        0.3710749841454707,
        0.7460750289134996,
        0.37107503565275024
      ]
    },
    {
      "bufferView": 1,
      "componentType": 5126,
      "count": 1856,
      "type": "VEC3",
      "min": [
        -1,
        -0.9999999999999858,
        -0.9999999999999858
      ],
      "max": [
        1,
        0.9999999999999858,
        0.9999999999999858
      ]
    },
    {
      "bufferView": 2,
      "componentType": 5126,
      "count": 1856,
      "type": "VEC4"
    },
    {
      "bufferView": 3,
      "componentType": 5125,
      "count": 3132,
      "type": "SCALAR"
    },
    {
      "bufferView": 4,
      "componentType": 5126,
      "count": 712,
      "type": "VEC3",
      "min": [
        -0.36333317202207954,
        0.01462157975050261,
        -0.3633355421282509
      ],
      "max": [
        0.36333317202207954,
        0.735378376896667,
        0.3633309360868843
      ]
    },
    {
      "bufferView": 5,
      "componentType": 5126,
      "count": 712,
      "type": "VEC3",
      "min": [
        -1,
        -0.9999999999999858,
        -0.9999999999999858
      ],
      "max": [
        1,
        0.9999999999999858,
        0.9999999999999858
      ]
    },
    {
      "bufferView": 6,
      "componentType": 5126,
      "count": 712,
      "type": "VEC4"
    },
    {
      "bufferView": 7,
      "componentType": 5125,
      "count": 1128,
      "type": "SCALAR"
    },
    {
      "bufferView": 8,
      "componentType": 5126,
      "count": 88,
      "type": "VEC3",
      "min": [
        -0.34613626687207105,
        0.19204136689522303,
        -0.3461583290228482
      ],
      "max": [
        0.34613626687207105,
        0.5579585893353068,
        0.34611426641029674
      ]
    },
    {
      "bufferView": 9,
      "componentType": 5126,
      "count": 88,
      "type": "VEC3",
      "min": [
        -0.7143331326980641,
        -0.8923591146978599,
        -0.7071069600004372
      ],
      "max": [
        0.7143331326980641,
        0.8923593569183971,
        0.6998060231571385
      ]
    },
    {
      "bufferView": 10,
      "componentType": 5126,
      "count": 88,
      "type": "VEC4"
    },
    {
      "bufferView": 11,
      "componentType": 5125,
      "count": 144,
      "type": "SCALAR"
    },
    {
      "bufferView": 12,
      "componentType": 5126,
      "count": 2336,
      "type": "VEC3",
      "min": [
        -0.3348074029227243,
        0,
        -0.3348074735991289
      ],
      "max": [
        0.3348074861644357,
        0.75,
        0.3348074444441047
      ]
    },
    {
      "bufferView": 13,
      "componentType": 5126,
      "count": 2336,
      "type": "VEC3",
      "min": [
        -0.9999999999980962,
        -0.9999999999999858,
        -0.9999999999998588
      ],
      "max": [
        0.9999999999999091,
        1,
        0.9999999999999294
      ]
    },
    {
      "bufferView": 14,
      "componentType": 5126,
      "count": 2336,
      "type": "VEC4"
    },
    {
      "bufferView": 15,
      "componentType": 5125,
      "count": 3504,
      "type": "SCALAR"
    },
    {
      "bufferView": 16,
      "componentType": 5126,
      "count": 64,
      "type": "VEC3",
      "min": [
        -0.3148379105979506,
        0.030418305844254423,
        -0.3148379800654955
      ],
      "max": [
        0.31483799383966193,
        0.7195816508029151,
        0.31483795377428353
      ]
    },
    {
      "bufferView": 17,
      "componentType": 5126,
      "count": 64,
      "type": "VEC3",
      "min": [
        -0.9999999999999691,
        -0.9999999999999858,
        -0.9999999999998261
      ],
      "max": [
        0.9999999999997782,
        0.9999999999999842,
        0.9999999999999248
      ]
    },
    {
      "bufferView": 18,
      "componentType": 5126,
      "count": 64,
      "type": "VEC4"
    },
    {
      "bufferView": 19,
      "componentType": 5125,
      "count": 156,
      "type": "SCALAR"
    }
  ]
}
