{
  "asset": {
    "version": "2.0",
    "generator": "Laboratory grid adapter"
  },
  "scene": 0,
  "scenes": [
    {
      "nodes": [
        0
      ]
    }
  ],
  "nodes": [
    {
      "name": "Lab_Props_Computer",
      "mesh": 0
    }
  ],
  "meshes": [
    {
      "primitives": [
        {
          "attributes": {
            "POSITION": 0,
            "NORMAL": 1,
            "TANGENT": 2
          },
          "indices": 3,
          "material": 0,
          "mode": 4
        },
        {
          "attributes": {
            "POSITION": 4,
            "NORMAL": 5,
            "TANGENT": 6
          },
          "indices": 7,
          "material": 1,
          "mode": 4
        },
        {
          "attributes": {
            "POSITION": 8,
            "NORMAL": 9,
            "TANGENT": 10
          },
          "indices": 11,
          "material": 2,
          "mode": 4
        },
        {
          "attributes": {
            "POSITION": 12,
            "NORMAL": 13,
            "TANGENT": 14
          },
          "indices": 15,
          "material": 3,
          "mode": 4
        },
        {
          "attributes": {
            "POSITION": 16,
            "NORMAL": 17,
            "TANGENT": 18
          },
          "indices": 19,
          "material": 4,
          "mode": 4
        }
      ]
    }
  ],
  "materials": [
    {
      "name": "Main",
      "pbrMetallicRoughness": {
        "baseColorFactor": [
          0.32157066464424133,
          0.32157066464424133,
          0.32157066464424133,
          1
        ],
        "metallicFactor": 0
      }
    },
    {
      "name": "DarkGrey",
      "pbrMetallicRoughness": {
        "baseColorFactor": [
          0.19163785874843597,
          0.19163785874843597,
          0.19163785874843597,
          1
        ],
        "metallicFactor": 0
      }
    },
    {
      "name": "Black",
      "pbrMetallicRoughness": {
        "baseColorFactor": [
          0.03362038731575012,
          0.03362038731575012,
          0.03362038731575012,
          1
        ],
        "metallicFactor": 0
      }
    },
    {
      "name": "Accent",
      "pbrMetallicRoughness": {
        "baseColorFactor": [
          0.44767409563064575,
          0.23813796043395996,
          0.05343186482787132,
          1
        ],
        "metallicFactor": 0
      }
    },
    {
      "name": "DarkAccent",
      "pbrMetallicRoughness": {
        "baseColorFactor": [
          0.18126316368579865,
          0.09870254993438721,
          0.024117888882756233,
          1
        ],
        "metallicFactor": 0
      }
    }
  ],
  "buffers": [
    {
      "uri": "C:/Users/2230190/Desktop/New JAMMOMAN/Data/Model/laboratory/Generated/Lab_Props_Computer.bin",
      "byteLength": 45688
    }
  ],
  "bufferViews": [
    {
      "buffer": 0,
      "byteOffset": 0,
      "byteLength": 1728,
      "target": 34962
    },
    {
      "buffer": 0,
      "byteOffset": 1728,
      "byteLength": 1728,
      "target": 34962
    },
    {
      "buffer": 0,
      "byteOffset": 3456,
      "byteLength": 2304,
      "target": 34962
    },
    {
      "buffer": 0,
      "byteOffset": 5760,
      "byteLength": 1488,
      "target": 34963
    },
    {
      "buffer": 0,
      "byteOffset": 7248,
      "byteLength": 1536,
      "target": 34962
    },
    {
      "buffer": 0,
      "byteOffset": 8784,
      "byteLength": 1536,
      "target": 34962
    },
    {
      "buffer": 0,
      "byteOffset": 10320,
      "byteLength": 2048,
      "target": 34962
    },
    {
      "buffer": 0,
      "byteOffset": 12368,
      "byteLength": 936,
      "target": 34963
    },
    {
      "buffer": 0,
      "byteOffset": 13304,
      "byteLength": 240,
      "target": 34962
    },
    {
      "buffer": 0,
      "byteOffset": 13544,
      "byteLength": 240,
      "target": 34962
    },
    {
      "buffer": 0,
      "byteOffset": 13784,
      "byteLength": 320,
      "target": 34962
    },
    {
      "buffer": 0,
      "byteOffset": 14104,
      "byteLength": 168,
      "target": 34963
    },
    {
      "buffer": 0,
      "byteOffset": 14272,
      "byteLength": 5268,
      "target": 34962
    },
    {
      "buffer": 0,
      "byteOffset": 19540,
      "byteLength": 5268,
      "target": 34962
    },
    {
      "buffer": 0,
      "byteOffset": 24808,
      "byteLength": 7024,
      "target": 34962
    },
    {
      "buffer": 0,
      "byteOffset": 31832,
      "byteLength": 3552,
      "target": 34963
    },
    {
      "buffer": 0,
      "byteOffset": 35384,
      "byteLength": 2688,
      "target": 34962
    },
    {
      "buffer": 0,
      "byteOffset": 38072,
      "byteLength": 2688,
      "target": 34962
    },
    {
      "buffer": 0,
      "byteOffset": 40760,
      "byteLength": 3584,
      "target": 34962
    },
    {
      "buffer": 0,
      "byteOffset": 44344,
      "byteLength": 1344,
      "target": 34963
    }
  ],
  "accessors": [
    {
      "bufferView": 0,
      "componentType": 5126,
      "count": 144,
      "type": "VEC3",
      "min": [
        -0.1884711039735526,
        0.002739277864422138,
        -0.09879399869527747
      ],
      "max": [
        0.1884711039735526,
        1.2072726787494572,
        0.12385798221451268
      ]
    },
    {
      "bufferView": 1,
      "componentType": 5126,
      "count": 144,
      "type": "VEC3",
      "min": [
        -1,
        -0.9999999999999858,
        -0.9999999999999858
      ],
      "max": [
        1,
        0.9914451705444409,
        0.9999999999999899
      ]
    },
    {
      "bufferView": 2,
      "componentType": 5126,
      "count": 144,
      "type": "VEC4"
    },
    {
      "bufferView": 3,
      "componentType": 5125,
      "count": 372,
      "type": "SCALAR"
    },
    {
      "bufferView": 4,
      "componentType": 5126,
      "count": 128,
      "type": "VEC3",
      "min": [
        -0.20933545117250418,
        0,
        -0.21553607283797815
      ],
      "max": [
        0.20933545117250418,
        1.4919226573906463,
        0.23229646123853895
      ]
    },
    {
      "bufferView": 5,
      "componentType": 5126,
      "count": 128,
      "type": "VEC3",
      "min": [
        -0.9999999999999939,
        -0.9999999999999858,
        -0.9999999999999858
      ],
      "max": [
        0.9999999999999939,
        0.9999999999999858,
        0.9999999999999876
      ]
    },
    {
      "bufferView": 6,
      "componentType": 5126,
      "count": 128,
      "type": "VEC4"
    },
    {
      "bufferView": 7,
      "componentType": 5125,
      "count": 234,
      "type": "SCALAR"
    },
    {
      "bufferView": 8,
      "componentType": 5126,
      "count": 20,
      "type": "VEC3",
      "min": [
        -0.19537935171007464,
        0.19588942973382498,
        -0.21587303892632867
      ],
      "max": [
        0.19537935171007464,
        1.4724071675569028,
        0.10374979327932195
      ]
    },
    {
      "bufferView": 9,
      "componentType": 5126,
      "count": 20,
      "type": "VEC3",
      "min": [
        -0.9999999999999849,
        -2.9335698518131235e-14,
        -0.9008431651658797
      ],
      "max": [
        0.9999999999999934,
        0.43414466687258446,
        1.7400884644302497e-7
      ]
    },
    {
      "bufferView": 10,
      "componentType": 5126,
      "count": 20,
      "type": "VEC4"
    },
    {
      "bufferView": 11,
      "componentType": 5125,
      "count": 42,
      "type": "SCALAR"
    },
    {
      "bufferView": 12,
      "componentType": 5126,
      "count": 439,
      "type": "VEC3",
      "min": [
        -0.20662258923217564,
        0.16207472896017736,
        -0.23229646123853895
      ],
      "max": [
        0.20662258923217564,
        1.5,
        0.14256700101557113
      ]
    },
    {
      "bufferView": 13,
      "componentType": 5126,
      "count": 439,
      "type": "VEC3",
      "min": [
        -1,
        -0.9999999999999856,
        -0.9999999999999966
      ],
      "max": [
        1,
        0.9999999999999858,
        0.9999999999999858
      ]
    },
    {
      "bufferView": 14,
      "componentType": 5126,
      "count": 439,
      "type": "VEC4"
    },
    {
      "bufferView": 15,
      "componentType": 5125,
      "count": 888,
      "type": "SCALAR"
    },
    {
      "bufferView": 16,
      "componentType": 5126,
      "count": 224,
      "type": "VEC3",
      "min": [
        -0.2011681878458456,
        0.19894227950852533,
        -0.009428535036243711
      ],
      "max": [
        0.2011681878458456,
        0.3054739640783018,
        0.1128469574053516
      ]
    },
    {
      "bufferView": 17,
      "componentType": 5126,
      "count": 224,
      "type": "VEC3",
      "min": [
        -0.9981835950211025,
        -0.9498733084526595,
        -3.592089707971914e-7
      ],
      "max": [
        0.9981835950211025,
        0.9256113965170176,
        3.3142059227877185e-7
      ]
    },
    {
      "bufferView": 18,
      "componentType": 5126,
      "count": 224,
      "type": "VEC4"
    },
    {
      "bufferView": 19,
      "componentType": 5125,
      "count": 336,
      "type": "SCALAR"
    }
  ]
}
