{
  "asset": {
    "version": "2.0",
    "generator": "Laboratory grid adapter"
  },
  "scene": 0,
  "scenes": [
    {
      "nodes": [
        0
      ]
    }
  ],
  "nodes": [
    {
      "name": "LabBlock_1m",
      "mesh": 0
    }
  ],
  "meshes": [
    {
      "primitives": [
        {
          "attributes": {
            "POSITION": 0,
            "NORMAL": 1,
            "TANGENT": 2
          },
          "indices": 3,
          "material": 0,
          "mode": 4
        },
        {
          "attributes": {
            "POSITION": 4,
            "NORMAL": 5,
            "TANGENT": 6
          },
          "indices": 7,
          "material": 1,
          "mode": 4
        }
      ]
    }
  ],
  "materials": [
    {
      "name": "Main",
      "pbrMetallicRoughness": {
        "baseColorFactor": [
          0.32157066464424133,
          0.32157066464424133,
          0.32157066464424133,
          1
        ],
        "metallicFactor": 0
      }
    },
    {
      "name": "DarkGrey",
      "pbrMetallicRoughness": {
        "baseColorFactor": [
          0.19163785874843597,
          0.19163785874843597,
          0.19163785874843597,
          1
        ],
        "metallicFactor": 0
      }
    }
  ],
  "buffers": [
    {
      "uri": "C:/Users/2230190/Desktop/New JAMMOMAN/Data/Model/laboratory/Generated/LabBlock_1m.bin",
      "byteLength": 37024
    }
  ],
  "bufferViews": [
    {
      "buffer": 0,
      "byteOffset": 0,
      "byteLength": 3744,
      "target": 34962
    },
    {
      "buffer": 0,
      "byteOffset": 3744,
      "byteLength": 3744,
      "target": 34962
    },
    {
      "buffer": 0,
      "byteOffset": 7488,
      "byteLength": 4992,
      "target": 34962
    },
    {
      "buffer": 0,
      "byteOffset": 12480,
      "byteLength": 2256,
      "target": 34963
    },
    {
      "buffer": 0,
      "byteOffset": 14736,
      "byteLength": 5664,
      "target": 34962
    },
    {
      "buffer": 0,
      "byteOffset": 20400,
      "byteLength": 5664,
      "target": 34962
    },
    {
      "buffer": 0,
      "byteOffset": 26064,
      "byteLength": 7552,
      "target": 34962
    },
    {
      "buffer": 0,
      "byteOffset": 33616,
      "byteLength": 3408,
      "target": 34963
    }
  ],
  "accessors": [
    {
      "bufferView": 0,
      "componentType": 5126,
      "count": 312,
      "type": "VEC3",
      "min": [
        -0.5,
        -0.4,
        -0.5
      ],
      "max": [
        0.5,
        0.4969430571515692,
        0.5
      ]
    },
    {
      "bufferView": 1,
      "componentType": 5126,
      "count": 312,
      "type": "VEC3",
      "min": [
        -1,
        -1,
        -1
      ],
      "max": [
        1,
        1,
        1
      ]
    },
    {
      "bufferView": 2,
      "componentType": 5126,
      "count": 312,
      "type": "VEC4"
    },
    {
      "bufferView": 3,
      "componentType": 5125,
      "count": 564,
      "type": "SCALAR"
    },
    {
      "bufferView": 4,
      "componentType": 5126,
      "count": 472,
      "type": "VEC3",
      "min": [
        -0.5,
        -0.5,
        -0.5
      ],
      "max": [
        0.5,
        0.5,
        0.5
      ]
    },
    {
      "bufferView": 5,
      "componentType": 5126,
      "count": 472,
      "type": "VEC3",
      "min": [
        -1,
        -1,
        -1
      ],
      "max": [
        1,
        1,
        1
      ]
    },
    {
      "bufferView": 6,
      "componentType": 5126,
      "count": 472,
      "type": "VEC4"
    },
    {
      "bufferView": 7,
      "componentType": 5125,
      "count": 852,
      "type": "SCALAR"
    }
  ]
}
