{
  "asset": {
    "version": "2.0",
    "generator": "Laboratory grid adapter"
  },
  "scene": 0,
  "scenes": [
    {
      "nodes": [
        0
      ]
    }
  ],
  "nodes": [
    {
      "name": "LabColumn_3m",
      "mesh": 0
    }
  ],
  "meshes": [
    {
      "primitives": [
        {
          "attributes": {
            "POSITION": 0,
            "NORMAL": 1,
            "TANGENT": 2
          },
          "indices": 3,
          "material": 0,
          "mode": 4
        },
        {
          "attributes": {
            "POSITION": 4,
            "NORMAL": 5,
            "TANGENT": 6
          },
          "indices": 7,
          "material": 1,
          "mode": 4
        }
      ]
    }
  ],
  "materials": [
    {
      "name": "Main",
      "pbrMetallicRoughness": {
        "baseColorFactor": [
          0.32157066464424133,
          0.32157066464424133,
          0.32157066464424133,
          1
        ],
        "metallicFactor": 0
      }
    },
    {
      "name": "DarkGrey",
      "pbrMetallicRoughness": {
        "baseColorFactor": [
          0.19163785874843597,
          0.19163785874843597,
          0.19163785874843597,
          1
        ],
        "metallicFactor": 0
      }
    }
  ],
  "buffers": [
    {
      "uri": "LabColumn_3m.bin",
      "byteLength": 14416
    }
  ],
  "bufferViews": [
    {
      "buffer": 0,
      "byteOffset": 0,
      "byteLength": 2352,
      "target": 34962
    },
    {
      "buffer": 0,
      "byteOffset": 2352,
      "byteLength": 2352,
      "target": 34962
    },
    {
      "buffer": 0,
      "byteOffset": 4704,
      "byteLength": 3136,
      "target": 34962
    },
    {
      "buffer": 0,
      "byteOffset": 7840,
      "byteLength": 1368,
      "target": 34963
    },
    {
      "buffer": 0,
      "byteOffset": 9208,
      "byteLength": 1296,
      "target": 34962
    },
    {
      "buffer": 0,
      "byteOffset": 10504,
      "byteLength": 1296,
      "target": 34962
    },
    {
      "buffer": 0,
      "byteOffset": 11800,
      "byteLength": 1728,
      "target": 34962
    },
    {
      "buffer": 0,
      "byteOffset": 13528,
      "byteLength": 888,
      "target": 34963
    }
  ],
  "accessors": [
    {
      "bufferView": 0,
      "componentType": 5126,
      "count": 196,
      "type": "VEC3",
      "min": [
        -0.22996692370555394,
        0.14200700766534613,
        -0.22996720307632418
      ],
      "max": [
        0.22996692370555394,
        3,
        0.22996720307632418
      ]
    },
    {
      "bufferView": 1,
      "componentType": 5126,
      "count": 196,
      "type": "VEC3",
      "min": [
        -0.99999985042423,
        -0.6426421070945121,
        -0.9999998504289915
      ],
      "max": [
        0.99999985042423,
        0.9999999999999858,
        0.9999998504289908
      ]
    },
    {
      "bufferView": 2,
      "componentType": 5126,
      "count": 196,
      "type": "VEC4"
    },
    {
      "bufferView": 3,
      "componentType": 5125,
      "count": 342,
      "type": "SCALAR"
    },
    {
      "bufferView": 4,
      "componentType": 5126,
      "count": 108,
      "type": "VEC3",
      "min": [
        -0.21397937608183265,
        0,
        -0.21397915359990877
      ],
      "max": [
        0.21397937608183265,
        0.14200707981380506,
        0.2139796625665564
      ]
    },
    {
      "bufferView": 5,
      "componentType": 5126,
      "count": 108,
      "type": "VEC3",
      "min": [
        -0.9999999999563658,
        -0.9999999999999858,
        -0.9999999999557116
      ],
      "max": [
        0.9999999999563658,
        1.685873971599438e-7,
        0.9999999999557116
      ]
    },
    {
      "bufferView": 6,
      "componentType": 5126,
      "count": 108,
      "type": "VEC4"
    },
    {
      "bufferView": 7,
      "componentType": 5125,
      "count": 222,
      "type": "SCALAR"
    }
  ]
}
