{
  "accessors": [
    {
      "bufferView": 0,
      "componentType": 5126,
      "count": 662,
      "max": [
        4.427962303161621,
        11.502349853515625,
        4.400179386138916
      ],
      "min": [
        -4.427962303161621,
        -0.003940804861485958,
        -4.400174617767334
      ],
      "type": "VEC3"
    },
    {
      "bufferView": 1,
      "componentType": 5126,
      "count": 662,
      "max": [
        0.9998770356178284,
        1.0,
        0.9999192953109741
      ],
      "min": [
        -0.9998775720596313,
        -1.0,
        -0.9999192953109741
      ],
      "type": "VEC3"
    },
    {
      "bufferView": 2,
      "componentType": 5126,
      "count": 662,
      "max": [
        0.726552426815033,
        0.8926153182983398,
        0.9771765470504761,
        1.0
      ],
      "min": [
        -0.9358311891555786,
        -0.9540866613388062,
        -0.9999880194664001,
        1.0
      ],
      "type": "VEC4"
    },
    {
      "bufferView": 3,
      "componentType": 5126,
      "count": 662,
      "max": [
        0.9400279521942139,
        0.9705219268798828
      ],
      "min": [
        0.02721533179283142,
        0.017477720975875854
      ],
      "type": "VEC2"
    },
    {
      "bufferView": 4,
      "componentType": 5125,
      "count": 3456,
      "max": [
        661
      ],
      "min": [
        0
      ],
      "type": "SCALAR"
    }
  ],
  "asset": {
    "version": "2.0"
  },
  "bufferViews": [
    {
      "buffer": 0,
      "byteLength": 7944,
      "target": 34962
    },
    {
      "buffer": 0,
      "byteLength": 7944,
      "byteOffset": 7944,
      "target": 34962
    },
    {
      "buffer": 0,
      "byteLength": 10592,
      "byteOffset": 15888,
      "target": 34962
    },
    {
      "buffer": 0,
      "byteLength": 5296,
      "byteOffset": 26480,
      "target": 34962
    },
    {
      "buffer": 0,
      "byteLength": 13824,
      "byteOffset": 31776,
      "target": 34963
    }
  ],
  "buffers": [
    {
      "byteLength": 45600,
      "uri": "egg.bin"
    }
  ],
  "images": [
    {
      "uri": "textures/lambert1_baseColor.png"
    },
    {
      "uri": "textures/lambert1_metallicRoughness.png"
    },
    {
      "uri": "textures/lambert1_normal.png"
    }
  ],
  "materials": [
    {
      "name": "lambert1",
      "normalTexture": {
        "index": 2
      },
      "pbrMetallicRoughness": {
        "baseColorTexture": {
          "index": 0
        },
        "metallicRoughnessTexture": {
          "index": 1
        }
      }
    }
  ],
  "meshes": [
    {
      "primitives": [
        {
          "attributes": {
            "NORMAL": 1,
            "POSITION": 0,
            "TANGENT": 2,
            "TEXCOORD_0": 3
          },
          "indices": 4,
          "material": 0,
          "mode": 4
        }
      ]
    }
  ],
  "nodes": [
    {
      "children": [
        1
      ],
      "name": "Sketchfab_model",
      "rotation": [
        -0.7071067690849304,
        0.0,
        -0.0,
        0.7071067690849304
      ],
      "scale": [
        1.0,
        1.0,
        1.0
      ],
      "translation": [
        0.0,
        0.0,
        0.0
      ]
    },
    {
      "children": [
        2
      ],
      "name": "3cd57f7d2fc2411f995aeac3762f39a7.fbx",
      "rotation": [
        0.7071067690849304,
        0.0,
        0.0,
        0.7071067690849304
      ],
      "scale": [
        1.0,
        1.0,
        1.0
      ],
      "translation": [
        0.0,
        0.0,
        0.0
      ]
    },
    {
      "children": [
        3
      ],
      "name": "RootNode",
      "rotation": [
        0.0,
        0.0,
        0.0,
        1.0
      ],
      "scale": [
        1.0,
        1.0,
        1.0
      ],
      "translation": [
        0.0,
        0.0,
        0.0
      ]
    },
    {
      "children": [
        4
      ],
      "name": "Sphere.001",
      "rotation": [
        0.0,
        0.0,
        0.0,
        1.0
      ],
      "scale": [
        1.0,
        1.0,
        1.0
      ],
      "translation": [
        0.0,
        0.0,
        0.0
      ]
    },
    {
      "mesh": 0,
      "name": "Sphere.001_lambert1_0",
      "rotation": [
        0.0,
        0.0,
        0.0,
        1.0
      ],
      "scale": [
        1.0,
        1.0,
        1.0
      ],
      "translation": [
        0.0,
        0.0,
        0.0
      ]
    }
  ],
  "samplers": [
    {
      "wrapS": 10497,
      "wrapT": 10497
    }
  ],
  "scenes": [
    {
      "nodes": [
        0
      ]
    }
  ],
  "textures": [
    {
      "sampler": 0,
      "source": 0
    },
    {
      "sampler": 0,
      "source": 1
    },
    {
      "sampler": 0,
      "source": 2
    }
  ]
}
