{
  "accessors": [
    {
      "bufferView": 0,
      "componentType": 5126,
      "count": 1117,
      "max": [
        0.9122271537780762,
        0.9122271537780762,
        0.41421031951904297
      ],
      "min": [
        -0.9122270941734314,
        -0.9122270941734314,
        -0.7353647351264954
      ],
      "type": "VEC3"
    },
    {
      "bufferView": 1,
      "componentType": 5126,
      "count": 1117,
      "max": [
        1.0,
        1.0,
        1.0
      ],
      "min": [
        -1.0,
        -1.0,
        -1.0
      ],
      "type": "VEC3"
    },
    {
      "bufferView": 2,
      "componentType": 5126,
      "count": 1117,
      "max": [
        1.0,
        0.9998192191123962,
        1.0,
        1.0
      ],
      "min": [
        -1.0,
        -1.0,
        -1.0,
        -1.0
      ],
      "type": "VEC4"
    },
    {
      "bufferView": 3,
      "componentType": 5126,
      "count": 1117,
      "max": [
        0.9959536194801331,
        0.9876933097839355
      ],
      "min": [
        0.03991308808326721,
        0.004876190796494484
      ],
      "type": "VEC2"
    },
    {
      "bufferView": 4,
      "componentType": 5126,
      "count": 1117,
      "max": [
        0.9959536194801331,
        0.9876933097839355
      ],
      "min": [
        0.03991308808326721,
        0.004876190796494484
      ],
      "type": "VEC2"
    },
    {
      "bufferView": 5,
      "componentType": 5126,
      "count": 1117,
      "max": [
        0.9959536194801331,
        0.9876933097839355
      ],
      "min": [
        0.03991308808326721,
        0.004876190796494484
      ],
      "type": "VEC2"
    },
    {
      "bufferView": 6,
      "componentType": 5125,
      "count": 3264,
      "max": [
        1116
      ],
      "min": [
        0
      ],
      "type": "SCALAR"
    },
    {
      "bufferView": 7,
      "componentType": 5126,
      "count": 5181,
      "max": [
        1.0299999713897705,
        0.7875304222106934,
        2.7120962142944336
      ],
      "min": [
        -1.0299999713897705,
        -0.7875306606292725,
        0.0
      ],
      "type": "VEC3"
    },
    {
      "bufferView": 8,
      "componentType": 5126,
      "count": 5181,
      "max": [
        1.0,
        1.0,
        1.0
      ],
      "min": [
        -1.0,
        -1.0,
        -1.0
      ],
      "type": "VEC3"
    },
    {
      "bufferView": 9,
      "componentType": 5126,
      "count": 5181,
      "max": [
        1.0,
        0.9999998211860657,
        0.9999955296516418,
        1.0
      ],
      "min": [
        -0.9993987679481506,
        -1.0,
        -0.9999884963035583,
        -1.0
      ],
      "type": "VEC4"
    },
    {
      "bufferView": 10,
      "componentType": 5126,
      "count": 5181,
      "max": [
        0.987802267074585,
        0.9958012104034424
      ],
      "min": [
        0.004190185572952032,
        0.004190185572952032
      ],
      "type": "VEC2"
    },
    {
      "bufferView": 11,
      "componentType": 5126,
      "count": 5181,
      "max": [
        0.987802267074585,
        0.9958012104034424
      ],
      "min": [
        0.004190185572952032,
        0.004190185572952032
      ],
      "type": "VEC2"
    },
    {
      "bufferView": 12,
      "componentType": 5126,
      "count": 5181,
      "max": [
        0.987802267074585,
        0.9958012104034424
      ],
      "min": [
        0.004190185572952032,
        0.004190185572952032
      ],
      "type": "VEC2"
    },
    {
      "bufferView": 13,
      "componentType": 5125,
      "count": 19890,
      "max": [
        5180
      ],
      "min": [
        0
      ],
      "type": "SCALAR"
    },
    {
      "bufferView": 14,
      "componentType": 5126,
      "count": 2,
      "max": [
        0.4166666567325592
      ],
      "min": [
        0.0
      ],
      "type": "SCALAR"
    },
    {
      "bufferView": 15,
      "componentType": 5126,
      "count": 2,
      "max": [
        0.0,
        0.0,
        0.0
      ],
      "min": [
        0.0,
        0.0,
        0.0
      ],
      "type": "VEC3"
    },
    {
      "bufferView": 16,
      "componentType": 5126,
      "count": 2,
      "max": [
        0.4166666567325592
      ],
      "min": [
        0.0
      ],
      "type": "SCALAR"
    },
    {
      "bufferView": 17,
      "componentType": 5126,
      "count": 2,
      "max": [
        -0.7071067690849304,
        0.0,
        -0.0,
        0.7071067690849304
      ],
      "min": [
        -0.7071067690849304,
        0.0,
        -0.0,
        0.7071067690849304
      ],
      "type": "VEC4"
    },
    {
      "bufferView": 18,
      "componentType": 5126,
      "count": 2,
      "max": [
        0.4166666567325592
      ],
      "min": [
        0.0
      ],
      "type": "SCALAR"
    },
    {
      "bufferView": 19,
      "componentType": 5126,
      "count": 2,
      "max": [
        0.6346916556358337,
        0.6346916556358337,
        0.6346916556358337
      ],
      "min": [
        0.6346916556358337,
        0.6346916556358337,
        0.6346916556358337
      ],
      "type": "VEC3"
    },
    {
      "bufferView": 20,
      "componentType": 5126,
      "count": 2,
      "max": [
        0.4166666567325592
      ],
      "min": [
        0.0
      ],
      "type": "SCALAR"
    },
    {
      "bufferView": 21,
      "componentType": 5126,
      "count": 2,
      "max": [
        0.0,
        0.0,
        0.0
      ],
      "min": [
        0.0,
        0.0,
        0.0
      ],
      "type": "VEC3"
    },
    {
      "bufferView": 22,
      "componentType": 5126,
      "count": 2,
      "max": [
        0.4166666567325592
      ],
      "min": [
        0.0
      ],
      "type": "SCALAR"
    },
    {
      "bufferView": 23,
      "componentType": 5126,
      "count": 2,
      "max": [
        0.7071067690849304,
        0.0,
        0.0,
        0.7071067690849304
      ],
      "min": [
        0.7071067690849304,
        0.0,
        0.0,
        0.7071067690849304
      ],
      "type": "VEC4"
    },
    {
      "bufferView": 24,
      "componentType": 5126,
      "count": 2,
      "max": [
        0.4166666567325592
      ],
      "min": [
        0.0
      ],
      "type": "SCALAR"
    },
    {
      "bufferView": 25,
      "componentType": 5126,
      "count": 2,
      "max": [
        0.009999999776482582,
        0.009999999776482582,
        0.009999999776482582
      ],
      "min": [
        0.009999999776482582,
        0.009999999776482582,
        0.009999999776482582
      ],
      "type": "VEC3"
    },
    {
      "bufferView": 26,
      "componentType": 5126,
      "count": 2,
      "max": [
        0.4166666567325592
      ],
      "min": [
        0.0
      ],
      "type": "SCALAR"
    },
    {
      "bufferView": 27,
      "componentType": 5126,
      "count": 2,
      "max": [
        0.0,
        0.0,
        0.0
      ],
      "min": [
        0.0,
        0.0,
        0.0
      ],
      "type": "VEC3"
    },
    {
      "bufferView": 28,
      "componentType": 5126,
      "count": 2,
      "max": [
        0.4166666567325592
      ],
      "min": [
        0.0
      ],
      "type": "SCALAR"
    },
    {
      "bufferView": 29,
      "componentType": 5126,
      "count": 2,
      "max": [
        0.0,
        0.0,
        0.0,
        1.0
      ],
      "min": [
        0.0,
        0.0,
        0.0,
        1.0
      ],
      "type": "VEC4"
    },
    {
      "bufferView": 30,
      "componentType": 5126,
      "count": 2,
      "max": [
        0.4166666567325592
      ],
      "min": [
        0.0
      ],
      "type": "SCALAR"
    },
    {
      "bufferView": 31,
      "componentType": 5126,
      "count": 2,
      "max": [
        1.0,
        1.0,
        1.0
      ],
      "min": [
        1.0,
        1.0,
        1.0
      ],
      "type": "VEC3"
    },
    {
      "bufferView": 32,
      "componentType": 5126,
      "count": 2,
      "max": [
        0.4166666567325592
      ],
      "min": [
        0.0
      ],
      "type": "SCALAR"
    },
    {
      "bufferView": 33,
      "componentType": 5126,
      "count": 2,
      "max": [
        0.0,
        0.0,
        0.0
      ],
      "min": [
        0.0,
        0.0,
        0.0
      ],
      "type": "VEC3"
    },
    {
      "bufferView": 34,
      "componentType": 5126,
      "count": 2,
      "max": [
        0.4166666567325592
      ],
      "min": [
        0.0
      ],
      "type": "SCALAR"
    },
    {
      "bufferView": 35,
      "componentType": 5126,
      "count": 2,
      "max": [
        0.0,
        0.0,
        0.0,
        1.0
      ],
      "min": [
        0.0,
        0.0,
        0.0,
        1.0
      ],
      "type": "VEC4"
    },
    {
      "bufferView": 36,
      "componentType": 5126,
      "count": 2,
      "max": [
        0.4166666567325592
      ],
      "min": [
        0.0
      ],
      "type": "SCALAR"
    },
    {
      "bufferView": 37,
      "componentType": 5126,
      "count": 2,
      "max": [
        1.0,
        1.0,
        1.0
      ],
      "min": [
        1.0,
        1.0,
        1.0
      ],
      "type": "VEC3"
    },
    {
      "bufferView": 38,
      "componentType": 5126,
      "count": 2,
      "max": [
        0.4166666567325592
      ],
      "min": [
        0.0
      ],
      "type": "SCALAR"
    },
    {
      "bufferView": 39,
      "componentType": 5126,
      "count": 2,
      "max": [
        7.372970856067695e-08,
        168.14048767089844,
        -1.8723463313108368e-07
      ],
      "min": [
        7.372970856067695e-08,
        168.14048767089844,
        -1.8723463313108368e-07
      ],
      "type": "VEC3"
    },
    {
      "bufferView": 40,
      "componentType": 5126,
      "count": 15,
      "max": [
        0.4166666567325592
      ],
      "min": [
        0.0
      ],
      "type": "SCALAR"
    },
    {
      "bufferView": 41,
      "componentType": 5126,
      "count": 15,
      "max": [
        8.146033536604591e-08,
        8.12995892829349e-08,
        0.9980267286300659,
        1.0
      ],
      "min": [
        -2.517262842616219e-08,
        -6.877924363379861e-08,
        -0.8443280458450317,
        -0.30901700258255005
      ],
      "type": "VEC4"
    },
    {
      "bufferView": 42,
      "componentType": 5126,
      "count": 2,
      "max": [
        0.4166666567325592
      ],
      "min": [
        0.0
      ],
      "type": "SCALAR"
    },
    {
      "bufferView": 43,
      "componentType": 5126,
      "count": 2,
      "max": [
        100.0,
        100.0,
        100.0
      ],
      "min": [
        100.0,
        100.0,
        100.0
      ],
      "type": "VEC3"
    },
    {
      "bufferView": 44,
      "componentType": 5126,
      "count": 2,
      "max": [
        0.4166666567325592
      ],
      "min": [
        0.0
      ],
      "type": "SCALAR"
    },
    {
      "bufferView": 45,
      "componentType": 5126,
      "count": 2,
      "max": [
        0.0,
        0.0,
        0.0
      ],
      "min": [
        0.0,
        0.0,
        0.0
      ],
      "type": "VEC3"
    },
    {
      "bufferView": 46,
      "componentType": 5126,
      "count": 2,
      "max": [
        0.4166666567325592
      ],
      "min": [
        0.0
      ],
      "type": "SCALAR"
    },
    {
      "bufferView": 47,
      "componentType": 5126,
      "count": 2,
      "max": [
        0.0,
        0.0,
        0.0,
        1.0
      ],
      "min": [
        0.0,
        0.0,
        0.0,
        1.0
      ],
      "type": "VEC4"
    },
    {
      "bufferView": 48,
      "componentType": 5126,
      "count": 2,
      "max": [
        0.4166666567325592
      ],
      "min": [
        0.0
      ],
      "type": "SCALAR"
    },
    {
      "bufferView": 49,
      "componentType": 5126,
      "count": 2,
      "max": [
        1.0,
        1.0,
        1.0
      ],
      "min": [
        1.0,
        1.0,
        1.0
      ],
      "type": "VEC3"
    },
    {
      "bufferView": 50,
      "componentType": 5126,
      "count": 2,
      "max": [
        0.4166666567325592
      ],
      "min": [
        0.0
      ],
      "type": "SCALAR"
    },
    {
      "bufferView": 51,
      "componentType": 5126,
      "count": 2,
      "max": [
        7.450580596923828e-07,
        -0.06912350654602051,
        -27.832170486450195
      ],
      "min": [
        7.450580596923828e-07,
        -0.06912350654602051,
        -27.832170486450195
      ],
      "type": "VEC3"
    },
    {
      "bufferView": 52,
      "componentType": 5126,
      "count": 2,
      "max": [
        0.4166666567325592
      ],
      "min": [
        0.0
      ],
      "type": "SCALAR"
    },
    {
      "bufferView": 53,
      "componentType": 5126,
      "count": 2,
      "max": [
        -0.7071068286895752,
        0.0,
        0.0,
        0.7071067094802856
      ],
      "min": [
        -0.7071068286895752,
        0.0,
        0.0,
        0.7071067094802856
      ],
      "type": "VEC4"
    },
    {
      "bufferView": 54,
      "componentType": 5126,
      "count": 2,
      "max": [
        0.4166666567325592
      ],
      "min": [
        0.0
      ],
      "type": "SCALAR"
    },
    {
      "bufferView": 55,
      "componentType": 5126,
      "count": 2,
      "max": [
        100.0,
        100.0,
        100.0
      ],
      "min": [
        100.0,
        100.0,
        100.0
      ],
      "type": "VEC3"
    },
    {
      "bufferView": 56,
      "componentType": 5126,
      "count": 2,
      "max": [
        0.4166666567325592
      ],
      "min": [
        0.0
      ],
      "type": "SCALAR"
    },
    {
      "bufferView": 57,
      "componentType": 5126,
      "count": 2,
      "max": [
        0.0,
        0.0,
        0.0
      ],
      "min": [
        0.0,
        0.0,
        0.0
      ],
      "type": "VEC3"
    },
    {
      "bufferView": 58,
      "componentType": 5126,
      "count": 2,
      "max": [
        0.4166666567325592
      ],
      "min": [
        0.0
      ],
      "type": "SCALAR"
    },
    {
      "bufferView": 59,
      "componentType": 5126,
      "count": 2,
      "max": [
        0.0,
        0.0,
        0.0,
        1.0
      ],
      "min": [
        0.0,
        0.0,
        0.0,
        1.0
      ],
      "type": "VEC4"
    },
    {
      "bufferView": 60,
      "componentType": 5126,
      "count": 2,
      "max": [
        0.4166666567325592
      ],
      "min": [
        0.0
      ],
      "type": "SCALAR"
    },
    {
      "bufferView": 61,
      "componentType": 5126,
      "count": 2,
      "max": [
        1.0,
        1.0,
        1.0
      ],
      "min": [
        1.0,
        1.0,
        1.0
      ],
      "type": "VEC3"
    }
  ],
  "animations": [
    {
      "channels": [
        {
          "sampler": 0,
          "target": {
            "node": 0,
            "path": "translation"
          }
        },
        {
          "sampler": 1,
          "target": {
            "node": 0,
            "path": "rotation"
          }
        },
        {
          "sampler": 2,
          "target": {
            "node": 0,
            "path": "scale"
          }
        },
        {
          "sampler": 3,
          "target": {
            "node": 1,
            "path": "translation"
          }
        },
        {
          "sampler": 4,
          "target": {
            "node": 1,
            "path": "rotation"
          }
        },
        {
          "sampler": 5,
          "target": {
            "node": 1,
            "path": "scale"
          }
        },
        {
          "sampler": 6,
          "target": {
            "node": 2,
            "path": "translation"
          }
        },
        {
          "sampler": 7,
          "target": {
            "node": 2,
            "path": "rotation"
          }
        },
        {
          "sampler": 8,
          "target": {
            "node": 2,
            "path": "scale"
          }
        },
        {
          "sampler": 9,
          "target": {
            "node": 3,
            "path": "translation"
          }
        },
        {
          "sampler": 10,
          "target": {
            "node": 3,
            "path": "rotation"
          }
        },
        {
          "sampler": 11,
          "target": {
            "node": 3,
            "path": "scale"
          }
        },
        {
          "sampler": 12,
          "target": {
            "node": 4,
            "path": "translation"
          }
        },
        {
          "sampler": 13,
          "target": {
            "node": 4,
            "path": "rotation"
          }
        },
        {
          "sampler": 14,
          "target": {
            "node": 4,
            "path": "scale"
          }
        },
        {
          "sampler": 15,
          "target": {
            "node": 5,
            "path": "translation"
          }
        },
        {
          "sampler": 16,
          "target": {
            "node": 5,
            "path": "rotation"
          }
        },
        {
          "sampler": 17,
          "target": {
            "node": 5,
            "path": "scale"
          }
        },
        {
          "sampler": 18,
          "target": {
            "node": 6,
            "path": "translation"
          }
        },
        {
          "sampler": 19,
          "target": {
            "node": 6,
            "path": "rotation"
          }
        },
        {
          "sampler": 20,
          "target": {
            "node": 6,
            "path": "scale"
          }
        },
        {
          "sampler": 21,
          "target": {
            "node": 7,
            "path": "translation"
          }
        },
        {
          "sampler": 22,
          "target": {
            "node": 7,
            "path": "rotation"
          }
        },
        {
          "sampler": 23,
          "target": {
            "node": 7,
            "path": "scale"
          }
        }
      ],
      "name": "Fan|Fan_Spin",
      "samplers": [
        {
          "input": 14,
          "interpolation": "LINEAR",
          "output": 15
        },
        {
          "input": 16,
          "interpolation": "LINEAR",
          "output": 17
        },
        {
          "input": 18,
          "interpolation": "LINEAR",
          "output": 19
        },
        {
          "input": 20,
          "interpolation": "LINEAR",
          "output": 21
        },
        {
          "input": 22,
          "interpolation": "LINEAR",
          "output": 23
        },
        {
          "input": 24,
          "interpolation": "LINEAR",
          "output": 25
        },
        {
          "input": 26,
          "interpolation": "LINEAR",
          "output": 27
        },
        {
          "input": 28,
          "interpolation": "LINEAR",
          "output": 29
        },
        {
          "input": 30,
          "interpolation": "LINEAR",
          "output": 31
        },
        {
          "input": 32,
          "interpolation": "LINEAR",
          "output": 33
        },
        {
          "input": 34,
          "interpolation": "LINEAR",
          "output": 35
        },
        {
          "input": 36,
          "interpolation": "LINEAR",
          "output": 37
        },
        {
          "input": 38,
          "interpolation": "LINEAR",
          "output": 39
        },
        {
          "input": 40,
          "interpolation": "LINEAR",
          "output": 41
        },
        {
          "input": 42,
          "interpolation": "LINEAR",
          "output": 43
        },
        {
          "input": 44,
          "interpolation": "LINEAR",
          "output": 45
        },
        {
          "input": 46,
          "interpolation": "LINEAR",
          "output": 47
        },
        {
          "input": 48,
          "interpolation": "LINEAR",
          "output": 49
        },
        {
          "input": 50,
          "interpolation": "LINEAR",
          "output": 51
        },
        {
          "input": 52,
          "interpolation": "LINEAR",
          "output": 53
        },
        {
          "input": 54,
          "interpolation": "LINEAR",
          "output": 55
        },
        {
          "input": 56,
          "interpolation": "LINEAR",
          "output": 57
        },
        {
          "input": 58,
          "interpolation": "LINEAR",
          "output": 59
        },
        {
          "input": 60,
          "interpolation": "LINEAR",
          "output": 61
        }
      ]
    }
  ],
  "asset": {
    "version": "2.0"
  },
  "bufferViews": [
    {
      "buffer": 0,
      "byteLength": 13404,
      "target": 34962
    },
    {
      "buffer": 0,
      "byteLength": 13404,
      "byteOffset": 13404,
      "target": 34962
    },
    {
      "buffer": 0,
      "byteLength": 17872,
      "byteOffset": 26808,
      "target": 34962
    },
    {
      "buffer": 0,
      "byteLength": 8936,
      "byteOffset": 44680,
      "target": 34962
    },
    {
      "buffer": 0,
      "byteLength": 8936,
      "byteOffset": 53616,
      "target": 34962
    },
    {
      "buffer": 0,
      "byteLength": 8936,
      "byteOffset": 62552,
      "target": 34962
    },
    {
      "buffer": 0,
      "byteLength": 13056,
      "byteOffset": 71488,
      "target": 34963
    },
    {
      "buffer": 0,
      "byteLength": 62172,
      "byteOffset": 84544,
      "target": 34962
    },
    {
      "buffer": 0,
      "byteLength": 62172,
      "byteOffset": 146716,
      "target": 34962
    },
    {
      "buffer": 0,
      "byteLength": 82896,
      "byteOffset": 208888,
      "target": 34962
    },
    {
      "buffer": 0,
      "byteLength": 41448,
      "byteOffset": 291784,
      "target": 34962
    },
    {
      "buffer": 0,
      "byteLength": 41448,
      "byteOffset": 333232,
      "target": 34962
    },
    {
      "buffer": 0,
      "byteLength": 41448,
      "byteOffset": 374680,
      "target": 34962
    },
    {
      "buffer": 0,
      "byteLength": 79560,
      "byteOffset": 416128,
      "target": 34963
    },
    {
      "buffer": 0,
      "byteLength": 8,
      "byteOffset": 495688
    },
    {
      "buffer": 0,
      "byteLength": 24,
      "byteOffset": 495696
    },
    {
      "buffer": 0,
      "byteLength": 8,
      "byteOffset": 495720
    },
    {
      "buffer": 0,
      "byteLength": 32,
      "byteOffset": 495728
    },
    {
      "buffer": 0,
      "byteLength": 8,
      "byteOffset": 495760
    },
    {
      "buffer": 0,
      "byteLength": 24,
      "byteOffset": 495768
    },
    {
      "buffer": 0,
      "byteLength": 8,
      "byteOffset": 495792
    },
    {
      "buffer": 0,
      "byteLength": 24,
      "byteOffset": 495800
    },
    {
      "buffer": 0,
      "byteLength": 8,
      "byteOffset": 495824
    },
    {
      "buffer": 0,
      "byteLength": 32,
      "byteOffset": 495832
    },
    {
      "buffer": 0,
      "byteLength": 8,
      "byteOffset": 495864
    },
    {
      "buffer": 0,
      "byteLength": 24,
      "byteOffset": 495872
    },
    {
      "buffer": 0,
      "byteLength": 8,
      "byteOffset": 495896
    },
    {
      "buffer": 0,
      "byteLength": 24,
      "byteOffset": 495904
    },
    {
      "buffer": 0,
      "byteLength": 8,
      "byteOffset": 495928
    },
    {
      "buffer": 0,
      "byteLength": 32,
      "byteOffset": 495936
    },
    {
      "buffer": 0,
      "byteLength": 8,
      "byteOffset": 495968
    },
    {
      "buffer": 0,
      "byteLength": 24,
      "byteOffset": 495976
    },
    {
      "buffer": 0,
      "byteLength": 8,
      "byteOffset": 496000
    },
    {
      "buffer": 0,
      "byteLength": 24,
      "byteOffset": 496008
    },
    {
      "buffer": 0,
      "byteLength": 8,
      "byteOffset": 496032
    },
    {
      "buffer": 0,
      "byteLength": 32,
      "byteOffset": 496040
    },
    {
      "buffer": 0,
      "byteLength": 8,
      "byteOffset": 496072
    },
    {
      "buffer": 0,
      "byteLength": 24,
      "byteOffset": 496080
    },
    {
      "buffer": 0,
      "byteLength": 8,
      "byteOffset": 496104
    },
    {
      "buffer": 0,
      "byteLength": 24,
      "byteOffset": 496112
    },
    {
      "buffer": 0,
      "byteLength": 60,
      "byteOffset": 496136
    },
    {
      "buffer": 0,
      "byteLength": 240,
      "byteOffset": 496196
    },
    {
      "buffer": 0,
      "byteLength": 8,
      "byteOffset": 496436
    },
    {
      "buffer": 0,
      "byteLength": 24,
      "byteOffset": 496444
    },
    {
      "buffer": 0,
      "byteLength": 8,
      "byteOffset": 496468
    },
    {
      "buffer": 0,
      "byteLength": 24,
      "byteOffset": 496476
    },
    {
      "buffer": 0,
      "byteLength": 8,
      "byteOffset": 496500
    },
    {
      "buffer": 0,
      "byteLength": 32,
      "byteOffset": 496508
    },
    {
      "buffer": 0,
      "byteLength": 8,
      "byteOffset": 496540
    },
    {
      "buffer": 0,
      "byteLength": 24,
      "byteOffset": 496548
    },
    {
      "buffer": 0,
      "byteLength": 8,
      "byteOffset": 496572
    },
    {
      "buffer": 0,
      "byteLength": 24,
      "byteOffset": 496580
    },
    {
      "buffer": 0,
      "byteLength": 8,
      "byteOffset": 496604
    },
    {
      "buffer": 0,
      "byteLength": 32,
      "byteOffset": 496612
    },
    {
      "buffer": 0,
      "byteLength": 8,
      "byteOffset": 496644
    },
    {
      "buffer": 0,
      "byteLength": 24,
      "byteOffset": 496652
    },
    {
      "buffer": 0,
      "byteLength": 8,
      "byteOffset": 496676
    },
    {
      "buffer": 0,
      "byteLength": 24,
      "byteOffset": 496684
    },
    {
      "buffer": 0,
      "byteLength": 8,
      "byteOffset": 496708
    },
    {
      "buffer": 0,
      "byteLength": 32,
      "byteOffset": 496716
    },
    {
      "buffer": 0,
      "byteLength": 8,
      "byteOffset": 496748
    },
    {
      "buffer": 0,
      "byteLength": 24,
      "byteOffset": 496756
    }
  ],
  "buffers": [
    {
      "byteLength": 496780,
      "uri": "Fan.bin"
    }
  ],
  "images": [
    {
      "uri": "textures/DeskFan_Mat_baseColor.png"
    },
    {
      "uri": "textures/DeskFan_Mat_metallicRoughness.png"
    },
    {
      "uri": "textures/DeskFan_Mat_normal.png"
    }
  ],
  "materials": [
    {
      "name": "DeskFan_Mat",
      "normalTexture": {
        "index": 2
      },
      "occlusionTexture": {
        "index": 1
      },
      "pbrMetallicRoughness": {
        "baseColorTexture": {
          "index": 0
        },
        "metallicRoughnessTexture": {
          "index": 1
        },
        "roughnessFactor": 0.800000011920929
      }
    }
  ],
  "meshes": [
    {
      "primitives": [
        {
          "attributes": {
            "NORMAL": 1,
            "POSITION": 0,
            "TANGENT": 2,
            "TEXCOORD_0": 3,
            "TEXCOORD_1": 4,
            "TEXCOORD_2": 5
          },
          "indices": 6,
          "material": 0,
          "mode": 4
        }
      ]
    },
    {
      "primitives": [
        {
          "attributes": {
            "NORMAL": 8,
            "POSITION": 7,
            "TANGENT": 9,
            "TEXCOORD_0": 10,
            "TEXCOORD_1": 11,
            "TEXCOORD_2": 12
          },
          "indices": 13,
          "material": 0,
          "mode": 4
        }
      ]
    }
  ],
  "nodes": [
    {
      "children": [
        1
      ],
      "name": "Sketchfab_model",
      "rotation": [
        -0.7071067690849304,
        0.0,
        -0.0,
        0.7071067690849304
      ],
      "scale": [
        0.6346916556358337,
        0.6346916556358337,
        0.6346916556358337
      ],
      "translation": [
        0.0,
        0.0,
        0.0
      ]
    },
    {
      "children": [
        2
      ],
      "name": "Desk Fan.fbx",
      "rotation": [
        0.7071067690849304,
        0.0,
        0.0,
        0.7071067690849304
      ],
      "scale": [
        0.009999999776482582,
        0.009999999776482582,
        0.009999999776482582
      ],
      "translation": [
        0.0,
        0.0,
        0.0
      ]
    },
    {
      "children": [
        3
      ],
      "name": "Object_2",
      "rotation": [
        0.0,
        0.0,
        0.0,
        1.0
      ],
      "scale": [
        1.0,
        1.0,
        1.0
      ],
      "translation": [
        0.0,
        0.0,
        0.0
      ]
    },
    {
      "children": [
        4,
        6
      ],
      "name": "RootNode",
      "rotation": [
        0.0,
        0.0,
        0.0,
        1.0
      ],
      "scale": [
        1.0,
        1.0,
        1.0
      ],
      "translation": [
        0.0,
        0.0,
        0.0
      ]
    },
    {
      "children": [
        5
      ],
      "name": "Fan",
      "rotation": [
        8.146033536604591e-08,
        0.0,
        0.0,
        1.0
      ],
      "scale": [
        100.0,
        100.0,
        100.0
      ],
      "translation": [
        7.372970856067695e-08,
        168.14048767089844,
        -1.8723463313108368e-07
      ]
    },
    {
      "mesh": 0,
      "name": "Fan_DeskFan Mat_0",
      "rotation": [
        0.0,
        0.0,
        0.0,
        1.0
      ],
      "scale": [
        1.0,
        1.0,
        1.0
      ],
      "translation": [
        0.0,
        0.0,
        0.0
      ]
    },
    {
      "children": [
        7
      ],
      "name": "Base",
      "rotation": [
        -0.7071068286895752,
        0.0,
        0.0,
        0.7071067094802856
      ],
      "scale": [
        100.0,
        100.0,
        100.0
      ],
      "translation": [
        7.450580596923828e-07,
        -0.06912350654602051,
        -27.832170486450195
      ]
    },
    {
      "mesh": 1,
      "name": "Base_DeskFan Mat_0",
      "rotation": [
        0.0,
        0.0,
        0.0,
        1.0
      ],
      "scale": [
        1.0,
        1.0,
        1.0
      ],
      "translation": [
        0.0,
        0.0,
        0.0
      ]
    }
  ],
  "samplers": [
    {
      "wrapS": 10497,
      "wrapT": 10497
    }
  ],
  "scenes": [
    {
      "nodes": [
        0
      ]
    }
  ],
  "textures": [
    {
      "sampler": 0,
      "source": 0
    },
    {
      "sampler": 0,
      "source": 1
    },
    {
      "sampler": 0,
      "source": 2
    }
  ]
}
