{
  "accessors": [
    {
      "bufferView": 0,
      "componentType": 5126,
      "count": 1372,
      "max": [
        1.250000238418579,
        0.22499999403953552,
        0.678571343421936
      ],
      "min": [
        -1.249999761581421,
        -0.22499999403953552,
        -1.821428656578064
      ],
      "type": "VEC3"
    },
    {
      "bufferView": 1,
      "componentType": 5126,
      "count": 1372,
      "max": [
        1.0,
        0.998473584651947,
        0.9915045499801636
      ],
      "min": [
        -1.0,
        -0.9897564053535461,
        -1.0
      ],
      "type": "VEC3"
    },
    {
      "bufferView": 2,
      "componentType": 5126,
      "count": 1372,
      "max": [
        0.9701825976371765,
        0.9705153703689575
      ],
      "min": [
        0.029817402362823486,
        0.029639363288879395
      ],
      "type": "VEC2"
    },
    {
      "bufferView": 3,
      "componentType": 5125,
      "count": 5004,
      "type": "SCALAR"
    },
    {
      "bufferView": 4,
      "componentType": 5126,
      "count": 52,
      "max": [
        1.250000238418579,
        0.09999999403953552,
        -0.21269172430038452
      ],
      "min": [
        -1.249999761581421,
        -0.09999999403953552,
        -1.821428656578064
      ],
      "type": "VEC3"
    },
    {
      "bufferView": 5,
      "componentType": 5126,
      "count": 52,
      "max": [
        1.0,
        6.302378210421011e-07,
        0.2902870178222656
      ],
      "min": [
        -1.0,
        -6.884051799715962e-07,
        -1.0
      ],
      "type": "VEC3"
    },
    {
      "bufferView": 6,
      "componentType": 5126,
      "count": 52,
      "max": [
        0.9701825976371765,
        0.8395810127258301
      ],
      "min": [
        0.029817402362823486,
        0.6306108236312866
      ],
      "type": "VEC2"
    },
    {
      "bufferView": 7,
      "componentType": 5125,
      "count": 144,
      "type": "SCALAR"
    },
    {
      "bufferView": 8,
      "componentType": 5126,
      "count": 78,
      "max": [
        0.07327467948198318,
        0.03951835632324219,
        0.70307457447052
      ],
      "min": [
        -0.07327467948198318,
        -0.03951835632324219,
        0.43978261947631836
      ],
      "type": "VEC3"
    },
    {
      "bufferView": 9,
      "componentType": 5126,
      "count": 78,
      "max": [
        0.724382758140564,
        0.685696542263031,
        0.7243826985359192
      ],
      "min": [
        -0.7243826985359192,
        -0.6856964826583862,
        -0.7243826985359192
      ],
      "type": "VEC3"
    },
    {
      "bufferView": 10,
      "componentType": 5126,
      "count": 78,
      "max": [
        0.8526369333267212,
        0.9701871871948242
      ],
      "min": [
        0.1473630666732788,
        0.02982202172279358
      ],
      "type": "VEC2"
    },
    {
      "bufferView": 11,
      "componentType": 5125,
      "count": 228,
      "type": "SCALAR"
    },
    {
      "bufferView": 12,
      "componentType": 5126,
      "count": 434,
      "max": [
        0.5503017902374268,
        0.04359210282564163,
        -0.1633068323135376
      ],
      "min": [
        -0.44551798701286316,
        -0.043592482805252075,
        -1.1155650615692139
      ],
      "type": "VEC3"
    },
    {
      "bufferView": 13,
      "componentType": 5126,
      "count": 434,
      "max": [
        0.9915007948875427,
        0.9976824522018433,
        0.9915054440498352
      ],
      "min": [
        -0.9915007948875427,
        -0.9961946606636047,
        -0.9922898411750793
      ],
      "type": "VEC3"
    },
    {
      "bufferView": 14,
      "componentType": 5126,
      "count": 434,
      "max": [
        0.9701825976371765,
        0.9701871871948242
      ],
      "min": [
        0.029817402362823486,
        0.02982202172279358
      ],
      "type": "VEC2"
    },
    {
      "bufferView": 15,
      "componentType": 5125,
      "count": 1164,
      "type": "SCALAR"
    },
    {
      "bufferView": 16,
      "componentType": 5126,
      "count": 434,
      "max": [
        0.5503021478652954,
        0.04359261691570282,
        0.979550302028656
      ],
      "min": [
        -0.4455176293849945,
        -0.04359196871519089,
        0.02729213237762451
      ],
      "type": "VEC3"
    },
    {
      "bufferView": 17,
      "componentType": 5126,
      "count": 434,
      "max": [
        0.991500735282898,
        0.9976824522018433,
        0.9915055632591248
      ],
      "min": [
        -0.9915007948875427,
        -0.9961946606636047,
        -0.9922915101051331
      ],
      "type": "VEC3"
    },
    {
      "bufferView": 18,
      "componentType": 5126,
      "count": 434,
      "max": [
        0.9701825976371765,
        0.9701871871948242
      ],
      "min": [
        0.029817402362823486,
        0.02982202172279358
      ],
      "type": "VEC2"
    },
    {
      "bufferView": 19,
      "componentType": 5125,
      "count": 1164,
      "type": "SCALAR"
    },
    {
      "bufferView": 20,
      "componentType": 5126,
      "count": 576,
      "type": "VEC3",
      "min": [
        -0.021931717172265053,
        0.07599999755620956,
        -0.10431548953056335
      ],
      "max": [
        1.0165088176727295,
        0.34125712513923645,
        0.9341251254081726
      ]
    },
    {
      "bufferView": 21,
      "componentType": 5126,
      "count": 576,
      "type": "VEC3",
      "min": [
        -0.9261534214019775,
        -0.88773512840271,
        -0.9261534214019775
      ],
      "max": [
        0.9261534214019775,
        0.88773512840271,
        0.9261534214019775
      ]
    },
    {
      "bufferView": 22,
      "componentType": 5125,
      "count": 576,
      "type": "SCALAR"
    },
    {
      "bufferView": 23,
      "componentType": 5126,
      "count": 1152,
      "type": "VEC3",
      "min": [
        0.07286112010478973,
        0.0689999982714653,
        -0.009522647596895695
      ],
      "max": [
        0.921716034412384,
        0.2089507281780243,
        0.8393322825431824
      ]
    },
    {
      "bufferView": 24,
      "componentType": 5126,
      "count": 1152,
      "type": "VEC3",
      "min": [
        -0.9238795042037964,
        -0.9146862626075745,
        -0.9238795042037964
      ],
      "max": [
        0.9238795042037964,
        0.9146862626075745,
        0.9238795042037964
      ]
    },
    {
      "bufferView": 25,
      "componentType": 5125,
      "count": 1152,
      "type": "SCALAR"
    },
    {
      "bufferView": 26,
      "componentType": 5126,
      "count": 720,
      "type": "VEC3",
      "min": [
        0.42628857493400574,
        0.19900000095367432,
        0.3439048230648041
      ],
      "max": [
        0.5682885646820068,
        0.30300000309944153,
        0.4859048128128052
      ]
    },
    {
      "bufferView": 27,
      "componentType": 5126,
      "count": 720,
      "type": "VEC3",
      "min": [
        -0.977811872959137,
        -1.0,
        -0.977811872959137
      ],
      "max": [
        0.977811872959137,
        1.0,
        0.977811872959137
      ]
    },
    {
      "bufferView": 28,
      "componentType": 5125,
      "count": 720,
      "type": "SCALAR"
    },
    {
      "bufferView": 29,
      "componentType": 5126,
      "count": 288,
      "type": "VEC3",
      "min": [
        0.4122885763645172,
        0.16899999976158142,
        0.32990482449531555
      ],
      "max": [
        0.5822885632514954,
        0.20200000703334808,
        0.4999048113822937
      ]
    },
    {
      "bufferView": 30,
      "componentType": 5126,
      "count": 288,
      "type": "VEC3",
      "min": [
        -0.9914448857307434,
        -1.0,
        -0.9914448857307434
      ],
      "max": [
        0.9914448857307434,
        1.0,
        0.9914448857307434
      ]
    },
    {
      "bufferView": 31,
      "componentType": 5125,
      "count": 288,
      "type": "SCALAR"
    }
  ],
  "asset": {
    "extras": {
      "author": "GeniusPilot2016 (https://sketchfab.com/GeniusPilot2016)",
      "license": "CC-BY-4.0 (http://creativecommons.org/licenses/by/4.0/)",
      "source": "https://sketchfab.com/3d-models/robot-vacuum-cleaner-d850de3997934dee8c63efa41ec1dea3",
      "title": "Robot Vacuum Cleaner",
      "modification": "Charging stand completely removed; 8 perimeter and 4 cardinal top spikes, left/right twice size with embedded bases; red raised central top beacon between four spikes; dark side sensor band; centered ground origin."
    },
    "generator": "Sketchfab-14.36.1",
    "version": "2.0"
  },
  "bufferViews": [
    {
      "buffer": 0,
      "byteOffset": 0,
      "byteLength": 16464,
      "target": 34962
    },
    {
      "buffer": 0,
      "byteOffset": 16464,
      "byteLength": 16464,
      "target": 34962
    },
    {
      "buffer": 0,
      "byteOffset": 32928,
      "byteLength": 10976,
      "target": 34962
    },
    {
      "buffer": 0,
      "byteOffset": 43904,
      "byteLength": 20016,
      "target": 34963
    },
    {
      "buffer": 0,
      "byteOffset": 63920,
      "byteLength": 624,
      "target": 34962
    },
    {
      "buffer": 0,
      "byteOffset": 64544,
      "byteLength": 624,
      "target": 34962
    },
    {
      "buffer": 0,
      "byteOffset": 65168,
      "byteLength": 416,
      "target": 34962
    },
    {
      "buffer": 0,
      "byteOffset": 65584,
      "byteLength": 576,
      "target": 34963
    },
    {
      "buffer": 0,
      "byteOffset": 66160,
      "byteLength": 936,
      "target": 34962
    },
    {
      "buffer": 0,
      "byteOffset": 67096,
      "byteLength": 936,
      "target": 34962
    },
    {
      "buffer": 0,
      "byteOffset": 68032,
      "byteLength": 624,
      "target": 34962
    },
    {
      "buffer": 0,
      "byteOffset": 68656,
      "byteLength": 912,
      "target": 34963
    },
    {
      "buffer": 0,
      "byteOffset": 69568,
      "byteLength": 5208,
      "target": 34962
    },
    {
      "buffer": 0,
      "byteOffset": 74776,
      "byteLength": 5208,
      "target": 34962
    },
    {
      "buffer": 0,
      "byteOffset": 79984,
      "byteLength": 3472,
      "target": 34962
    },
    {
      "buffer": 0,
      "byteOffset": 83456,
      "byteLength": 4656,
      "target": 34963
    },
    {
      "buffer": 0,
      "byteOffset": 88112,
      "byteLength": 5208,
      "target": 34962
    },
    {
      "buffer": 0,
      "byteOffset": 93320,
      "byteLength": 5208,
      "target": 34962
    },
    {
      "buffer": 0,
      "byteOffset": 98528,
      "byteLength": 3472,
      "target": 34962
    },
    {
      "buffer": 0,
      "byteOffset": 102000,
      "byteLength": 4656,
      "target": 34963
    },
    {
      "buffer": 0,
      "byteOffset": 106656,
      "byteLength": 6912,
      "target": 34962
    },
    {
      "buffer": 0,
      "byteOffset": 113568,
      "byteLength": 6912,
      "target": 34962
    },
    {
      "buffer": 0,
      "byteOffset": 120480,
      "byteLength": 2304,
      "target": 34963
    },
    {
      "buffer": 0,
      "byteOffset": 122784,
      "byteLength": 13824,
      "target": 34962
    },
    {
      "buffer": 0,
      "byteOffset": 136608,
      "byteLength": 13824,
      "target": 34962
    },
    {
      "buffer": 0,
      "byteOffset": 150432,
      "byteLength": 4608,
      "target": 34963
    },
    {
      "buffer": 0,
      "byteOffset": 155040,
      "byteLength": 8640,
      "target": 34962
    },
    {
      "buffer": 0,
      "byteOffset": 163680,
      "byteLength": 8640,
      "target": 34962
    },
    {
      "buffer": 0,
      "byteOffset": 172320,
      "byteLength": 2880,
      "target": 34963
    },
    {
      "buffer": 0,
      "byteOffset": 175200,
      "byteLength": 3456,
      "target": 34962
    },
    {
      "buffer": 0,
      "byteOffset": 178656,
      "byteLength": 3456,
      "target": 34962
    },
    {
      "buffer": 0,
      "byteOffset": 182112,
      "byteLength": 1152,
      "target": 34963
    }
  ],
  "buffers": [
    {
      "byteLength": 183264,
      "uri": "lab_spiked_vacuum.bin"
    }
  ],
  "materials": [
    {
      "doubleSided": true,
      "name": "robot_cleaner_body1",
      "pbrMetallicRoughness": {
        "metallicFactor": 0.35,
        "roughnessFactor": 0.45,
        "baseColorFactor": [
          0.25,
          0.3,
          0.36,
          1
        ]
      }
    },
    {
      "doubleSided": true,
      "name": "robot_cleaner_sensor",
      "pbrMetallicRoughness": {
        "baseColorFactor": [
          0.015,
          0.018,
          0.022,
          1
        ],
        "metallicFactor": 0.0,
        "roughnessFactor": 0.28
      }
    },
    {
      "doubleSided": true,
      "name": "robot_cleaner_button",
      "pbrMetallicRoughness": {
        "baseColorFactor": [
          0.95,
          0.55,
          0.045,
          1
        ],
        "metallicFactor": 0.0,
        "roughnessFactor": 0.5
      }
    },
    {
      "doubleSided": true,
      "name": "robot_cleaner_body1.005",
      "pbrMetallicRoughness": {
        "metallicFactor": 0.35,
        "roughnessFactor": 0.45,
        "baseColorFactor": [
          0.25,
          0.3,
          0.36,
          1
        ]
      }
    },
    {
      "name": "hazard_spikes",
      "pbrMetallicRoughness": {
        "baseColorFactor": [
          0.7,
          0.73,
          0.77,
          1
        ],
        "metallicFactor": 0.6,
        "roughnessFactor": 0.3
      }
    },
    {
      "name": "hazard_mounts",
      "pbrMetallicRoughness": {
        "baseColorFactor": [
          0.95,
          0.55,
          0.045,
          1
        ],
        "metallicFactor": 0.25,
        "roughnessFactor": 0.5
      }
    },
    {
      "name": "Central_Top_Red_Lamp",
      "emissiveFactor": [
        1,
        0.025,
        0.008
      ],
      "pbrMetallicRoughness": {
        "baseColorFactor": [
          1,
          0.035,
          0.015,
          1
        ],
        "metallicFactor": 0,
        "roughnessFactor": 0.25
      }
    }
  ],
  "meshes": [
    {
      "name": "Object_0",
      "primitives": [
        {
          "attributes": {
            "NORMAL": 1,
            "POSITION": 0,
            "TEXCOORD_0": 2
          },
          "indices": 3,
          "material": 0,
          "mode": 4
        }
      ]
    },
    {
      "name": "Object_1",
      "primitives": [
        {
          "attributes": {
            "NORMAL": 5,
            "POSITION": 4,
            "TEXCOORD_0": 6
          },
          "indices": 7,
          "material": 1,
          "mode": 4
        }
      ]
    },
    {
      "name": "Object_2",
      "primitives": [
        {
          "attributes": {
            "NORMAL": 9,
            "POSITION": 8,
            "TEXCOORD_0": 10
          },
          "indices": 11,
          "material": 2,
          "mode": 4
        }
      ]
    },
    {
      "name": "Object_5",
      "primitives": [
        {
          "attributes": {
            "NORMAL": 13,
            "POSITION": 12,
            "TEXCOORD_0": 14
          },
          "indices": 15,
          "material": 0,
          "mode": 4
        }
      ]
    },
    {
      "name": "Object_6",
      "primitives": [
        {
          "attributes": {
            "NORMAL": 17,
            "POSITION": 16,
            "TEXCOORD_0": 18
          },
          "indices": 19,
          "material": 3,
          "mode": 4
        }
      ]
    },
    {
      "name": "Lab_Hazard_Spikes_and_Mounts",
      "primitives": [
        {
          "attributes": {
            "POSITION": 20,
            "NORMAL": 21
          },
          "indices": 22,
          "material": 4,
          "mode": 4
        },
        {
          "attributes": {
            "POSITION": 23,
            "NORMAL": 24
          },
          "indices": 25,
          "material": 5,
          "mode": 4
        },
        {
          "attributes": {
            "POSITION": 26,
            "NORMAL": 27
          },
          "indices": 28,
          "material": 6,
          "mode": 4
        },
        {
          "attributes": {
            "POSITION": 29,
            "NORMAL": 30
          },
          "indices": 31,
          "material": 0,
          "mode": 4
        }
      ]
    }
  ],
  "nodes": [
    {
      "children": [
        1
      ],
      "matrix": [
        1.0,
        0.0,
        0.0,
        0.0,
        0.0,
        2.220446049250313e-16,
        -1.0,
        0.0,
        0.0,
        1.0,
        2.220446049250313e-16,
        0.0,
        0.0,
        0.0,
        0.0,
        1.0
      ],
      "name": "Sketchfab_model"
    },
    {
      "children": [
        2
      ],
      "name": "root"
    },
    {
      "children": [
        3,
        6,
        8,
        10
      ],
      "matrix": [
        1.0,
        0.0,
        0.0,
        0.0,
        0.0,
        2.220446049250313e-16,
        1.0,
        0.0,
        0.0,
        -1.0,
        2.220446049250313e-16,
        0.0,
        0.0,
        0.0,
        0.0,
        1.0
      ],
      "name": "GLTF_SceneRootNode"
    },
    {
      "children": [
        4,
        5
      ],
      "matrix": [
        -0.3500000238418313,
        0.0,
        1.362950378809349e-07,
        0.0,
        0.0,
        0.3500000238418579,
        0.0,
        0.0,
        -1.362950378809349e-07,
        0.0,
        -0.3500000238418313,
        0.0,
        0.4972885847091675,
        0.10241680592298508,
        0.2149047702550888,
        1.0
      ],
      "name": "body_2"
    },
    {
      "mesh": 0,
      "name": "Object_4"
    },
    {
      "mesh": 1,
      "name": "Object_5"
    },
    {
      "children": [
        7
      ],
      "matrix": [
        0.3500000238418579,
        0.0,
        0.0,
        0.0,
        0.0,
        0.17500001192092896,
        0.0,
        0.0,
        0.0,
        0.0,
        0.3500000238418579,
        0.0,
        0.4901863634586334,
        0.17153824865818024,
        0.5217068791389465,
        1.0
      ],
      "name": "button_3"
    },
    {
      "mesh": 2,
      "name": "Object_7"
    },
    {
      "children": [
        9
      ],
      "matrix": [
        0.3500000238418579,
        0.0,
        0.0,
        0.0,
        0.0,
        -0.3500000238418023,
        -1.9749099559859926e-07,
        0.0,
        0.0,
        1.9749099559859926e-07,
        -0.3500000238418023,
        0.0,
        0.23106306791305542,
        0.016719520092010498,
        0.45711565017700195,
        1.0
      ],
      "name": "brush1_5"
    },
    {
      "mesh": 3,
      "name": "Object_12"
    },
    {
      "children": [
        11
      ],
      "matrix": [
        -0.3500000238418579,
        -5.4700552558430935e-14,
        0.0,
        0.0,
        5.4700552558430935e-14,
        -0.3500000238418579,
        0.0,
        0.0,
        0.0,
        0.0,
        0.3500000238418579,
        0.0,
        0.760627269744873,
        0.016719520092010498,
        0.4571155905723572,
        1.0
      ],
      "name": "brush2_6"
    },
    {
      "mesh": 4,
      "name": "Object_14"
    },
    {
      "name": "Hazard_spikes",
      "mesh": 5
    },
    {
      "name": "Lab_Spiked_Vacuum_Enemy",
      "children": [
        0,
        12
      ],
      "translation": [
        -0.49728858,
        -0.001462103,
        -0.41490481
      ]
    }
  ],
  "scene": 0,
  "scenes": [
    {
      "name": "Lab_Enemy",
      "nodes": [
        13
      ]
    }
  ]
}