{
  "accessors": [
    {
      "bufferView": 0,
      "componentType": 5126,
      "count": 452,
      "max": [
        1.831690788269043,
        -0.21292400360107422,
        4.355196952819824
      ],
      "min": [
        -1.676757574081421,
        -0.34051018953323364,
        3.9850687980651855
      ],
      "type": "VEC3"
    },
    {
      "bufferView": 1,
      "componentType": 5126,
      "count": 452,
      "max": [
        1.0,
        1.0,
        1.0
      ],
      "min": [
        -1.0,
        -1.0,
        -1.0
      ],
      "type": "VEC3"
    },
    {
      "bufferView": 2,
      "componentType": 5125,
      "count": 1068,
      "max": [
        451
      ],
      "min": [
        0
      ],
      "type": "SCALAR"
    }
  ],
  "asset": {
    "version": "2.0"
  },
  "bufferViews": [
    {
      "buffer": 0,
      "byteLength": 5424,
      "target": 34962
    },
    {
      "buffer": 0,
      "byteLength": 5424,
      "byteOffset": 5424,
      "target": 34962
    },
    {
      "buffer": 0,
      "byteLength": 4272,
      "byteOffset": 10848,
      "target": 34963
    }
  ],
  "buffers": [
    {
      "byteLength": 15120,
      "uri": "C:/Users/2230190/Desktop/New JAMMOMAN/Data/Model/laboratory/Pipes.bin"
    }
  ],
  "materials": [
    {
      "name": "Pipes",
      "pbrMetallicRoughness": {
        "baseColorFactor": [
          0.015077660791575909,
          0.015077660791575909,
          0.015077660791575909,
          1.0
        ],
        "metallicFactor": 0.0
      }
    }
  ],
  "meshes": [
    {
      "primitives": [
        {
          "attributes": {
            "NORMAL": 1,
            "POSITION": 0
          },
          "indices": 2,
          "material": 0,
          "mode": 4
        }
      ]
    }
  ],
  "nodes": [
    {
      "mesh": 0,
      "name": "Pipes",
      "rotation": [
        -0.7071068286895752,
        0.0,
        0.0,
        0.7071067094802856
      ],
      "scale": [
        100.0,
        100.0,
        100.0
      ],
      "translation": [
        0.0,
        0.0,
        0.0
      ]
    }
  ],
  "samplers": [
    {
      "wrapS": 10497,
      "wrapT": 10497
    }
  ],
  "scenes": [
    {
      "nodes": [
        0
      ]
    }
  ]
}
